HIERARCHY
ROOT hip
{
	OFFSET 0.000000 0.000000 0.000000 
	CHANNELS 6 Xposition Yposition Zposition Xrotation Zrotation Yrotation
	JOINT abdomen
	{
		OFFSET 0.000000 3.402643 0.000000 
		CHANNELS 3 Xrotation Zrotation Yrotation
		JOINT chest
		{
			OFFSET 0.000000 8.438565 -0.680529 
			CHANNELS 3 Xrotation Zrotation Yrotation
			JOINT neck
			{
				OFFSET 0.000000 10.207942 -0.272212 
				CHANNELS 3 Xrotation Zrotation Yrotation
				JOINT head
				{
					OFFSET 0.000000 3.130431 0.000000 
					CHANNELS 3 Xrotation Zrotation Yrotation
					End Site
					{
						OFFSET 0.000000 3.130435 0.000000 
					}
				}
			}
			JOINT lCollar
			{
				OFFSET 3.470700 6.669187 -0.816635 
				CHANNELS 3 Yrotation Zrotation Xrotation
				JOINT lShldr
				{
					OFFSET 3.198488 0.000000 0.000000 
					CHANNELS 3 Zrotation Yrotation Xrotation
					JOINT lForeArm
					{
						OFFSET 10.139888 0.000000 0.000000 
						CHANNELS 3 Yrotation Zrotation Xrotation
						JOINT lHand
						{
							OFFSET 8.370511 0.000000 0.000000 
							CHANNELS 3 Zrotation Yrotation Xrotation
							End Site
							{
								OFFSET 4.083176 0.000000 0.000000 
							}
						}
					}
				}
			}
			JOINT rCollar
			{
				OFFSET -3.470700 6.669187 -0.816635 
				CHANNELS 3 Yrotation Zrotation Xrotation
				JOINT rShldr
				{
					OFFSET -3.198488 0.000000 0.000000 
					CHANNELS 3 Zrotation Yrotation Xrotation
					JOINT rForeArm
					{
						OFFSET -10.139888 0.000000 0.000000 
						CHANNELS 3 Yrotation Zrotation Xrotation
						JOINT rHand
						{
							OFFSET -8.370511 0.000000 0.000000 
							CHANNELS 3 Zrotation Yrotation Xrotation
							End Site
							{
								OFFSET -4.083176 0.000000 0.000000 
							}
						}
					}
				}
			}
		}
	}
	JOINT lThigh
	{
		OFFSET 5.308129 -1.633274 1.361059 
		CHANNELS 3 Xrotation Zrotation Yrotation
		JOINT lShin
		{
			OFFSET -2.041588 -20.007561 0.000000 
			CHANNELS 3 Xrotation Zrotation Yrotation
			JOINT lFoot
			{
				OFFSET 0.000000 -19.190928 -1.224953 
				CHANNELS 3 Xrotation Yrotation Zrotation
				End Site
				{
					OFFSET 0.000000 -2.449906 4.627600 
				}
			}
		}
	}
	JOINT rThigh
	{
		OFFSET -5.308129 -1.633274 1.361059 
		CHANNELS 3 Xrotation Zrotation Yrotation
		JOINT rShin
		{
			OFFSET 2.041588 -20.007561 0.000000 
			CHANNELS 3 Xrotation Zrotation Yrotation
			JOINT rFoot
			{
				OFFSET 0.000000 -19.190928 -1.224953 
				CHANNELS 3 Xrotation Yrotation Zrotation
				End Site
				{
					OFFSET 0.000000 -2.449906 4.627600 
				}
			}
		}
	}
}
MOTION
Frames: 19
Frame Time: 0.033333
2.935133 43.401325 -56.010086 7.373046 -3.173828 29.531256 23.837891 4.335938 -2.850824 -2.656250 -1.474609 -2.783454 -21.279297 -2.060547 -12.060548 1.640625 7.626953 -12.499998 1.416016 13.115232 0.488281 -111.777344 -60.791019 79.981712 -45.205078 -3.134766 -33.612743 -1.826172 13.320313 -0.927734 -7.900391 -3.652344 0.019531 73.496094 60.986328 15.400390 48.984375 3.261719 -36.484932 -15.263673 -22.978516 5.166016 -11.775161 14.875439 22.689470 45.584766 -0.599293 -2.930991 -30.083664 3.968880 -4.650203 -40.741734 -16.503653 -12.589061 45.981407 -0.036266 2.326958 -9.501960 15.049239 9.730009 
2.994432 43.370220 -55.995049 7.197266 -3.173828 29.354927 23.662109 4.296875 -2.684815 -2.832031 -1.474609 -2.793220 -21.103516 -2.060547 -12.060898 1.816406 7.626953 -12.498704 1.552734 13.115232 0.654297 -112.119141 -60.859375 80.118416 -44.892578 -3.125000 -33.261715 -2.236328 14.003906 -1.074219 -8.066406 -4.023438 0.126953 73.847656 60.810547 15.574933 49.033203 3.154297 -34.961475 -14.023438 -22.509768 4.482422 -11.579860 14.816477 22.695801 45.584404 -0.599292 -2.940667 -30.407200 4.539530 -4.671380 -40.553997 -16.502487 -12.422883 46.143970 0.166098 2.764791 -9.470058 15.067459 9.667175 
3.069342 43.329792 -55.978626 7.021484 -2.988281 29.003397 23.828125 4.130859 -2.714140 -3.007812 -1.474609 -2.793220 -20.576170 -2.060547 -12.060898 1.816406 7.626953 -12.498704 1.552734 13.291016 0.652052 -112.080078 -60.957035 79.776619 -45.312500 -3.193359 -34.315861 -1.855469 14.902343 -0.925223 -7.890625 -4.023438 0.146484 73.369141 60.634766 15.086635 48.955082 3.212891 -36.016171 -13.710938 -22.880859 4.498158 -11.218391 14.405545 22.888901 45.791622 -0.440323 -2.858440 -30.440458 4.685072 -4.331313 -40.308086 -16.276716 -11.973597 46.325802 -0.009736 2.537031 -9.399725 15.361385 9.625737 
3.162194 43.274570 -55.965115 6.679688 -2.646484 28.817907 24.013672 3.994141 -2.929687 -3.183594 -1.640625 -2.803028 -20.410156 -1.533203 -11.904558 1.816406 7.275390 -12.322983 1.914063 13.652345 0.554336 -112.324219 -61.230469 80.186752 -46.435547 -3.144531 -35.858841 -1.289063 15.615234 -0.791016 -8.066406 -4.023438 0.126953 72.617195 61.201172 15.623793 48.535156 3.261719 -37.881413 -13.808594 -21.992188 4.488532 -10.731244 14.399953 22.219572 46.321461 -0.765208 -2.860817 -30.940693 5.009428 -4.077440 -40.208813 -16.500265 -12.107268 46.681393 -0.002532 2.701055 -9.543017 15.364113 9.491755 
3.283822 43.211308 -55.959053 6.494141 -2.470703 28.642756 24.003906 3.818359 -2.968750 -3.359375 -1.816406 -2.978516 -19.716797 -1.171875 -11.738281 1.464844 6.923828 -12.157024 2.402344 14.189452 0.576172 -112.187500 -61.533203 80.273438 -47.832031 -3.212891 -36.220154 -1.279297 15.087892 -0.791016 -8.417968 -4.199219 0.078840 72.548828 61.542969 15.633586 49.560547 3.144531 -37.548828 -13.046875 -24.023438 4.462891 -10.526647 13.922869 22.066776 46.314758 -0.567039 -2.751036 -31.078440 5.408267 -3.814239 -39.993496 -16.646397 -11.708128 47.022923 0.007272 2.720239 -9.809772 15.885458 9.962210 
3.392051 43.132320 -55.963600 6.328125 -2.294922 28.290623 24.003906 3.818359 -2.968750 -3.359375 -1.816406 -2.978516 -19.023438 -0.644531 -11.572267 1.113281 6.738281 -12.000806 3.398438 14.921875 0.612694 -113.964844 -62.304684 81.251114 -49.970707 -3.232422 -37.216797 -0.527344 14.931643 -0.615234 -9.462890 -4.746094 0.088699 73.769531 62.480473 14.989128 51.357422 3.154297 -36.933594 -11.621095 -24.550781 4.003906 -10.340664 13.882473 21.727188 46.670502 -0.743029 -2.676105 -31.210129 5.836032 -3.692645 -40.406082 -16.696804 -11.175591 47.374180 0.156230 2.797898 -9.862059 15.888852 10.004512 
3.493523 43.022694 -55.962791 6.152344 -2.285156 28.125002 24.013672 3.857421 -3.134766 -3.359375 -1.816406 -3.154297 -17.978516 -0.107422 -11.416019 0.410156 6.386719 -11.865233 4.882813 15.498048 0.700516 -117.050781 -63.583988 83.496094 -52.568359 -3.134766 -37.001949 0.615234 15.302735 -0.339218 -11.191406 -5.507813 0.146484 74.570313 63.115238 14.541017 55.156246 3.251953 -38.388676 -11.308593 -22.675781 3.550925 -10.184017 13.617852 21.232504 47.207615 -0.921641 -2.971876 -31.868460 6.505216 -2.950362 -40.406292 -16.706745 -11.009150 48.057552 0.175786 2.828078 -10.412238 16.024925 9.935396 
3.561443 42.840252 -55.959167 5.976563 -2.119127 28.300634 24.189453 3.720703 -3.349610 -3.710938 -1.455078 -3.173828 -15.888673 0.253906 -11.074219 -0.478516 6.552734 -11.552734 6.679688 16.474609 0.739418 58.564472 -115.087898 -92.743217 -55.312500 -3.046875 -34.199223 1.591797 14.960937 -0.007245 -13.759766 -7.382812 0.157505 76.796875 63.720707 14.247038 60.654301 3.193359 -39.385307 -12.314453 -21.181641 3.648815 -10.350630 13.756455 20.857973 48.255096 -0.743420 -2.923685 -32.464779 5.893239 -3.378120 -41.587738 -17.194817 -10.719469 50.027241 0.302632 2.482732 -8.661053 16.769541 9.791870 
3.581715 42.539566 -55.946239 6.152344 -2.119127 28.652197 24.365232 3.720703 -3.349609 -4.404297 -0.917969 -3.369297 -12.919922 0.615234 -10.732316 -2.236328 6.357422 -11.453998 8.789062 17.841797 0.771484 53.007813 -113.183594 -87.528511 -57.275391 -2.841797 -28.554688 0.283203 13.544922 -0.322266 -16.777344 -9.746095 0.314153 80.019531 63.955078 14.022446 66.855469 3.212891 -39.268127 -13.398438 -19.824217 3.893174 -11.045084 14.248044 21.681116 49.659794 -0.261158 -3.144105 -33.414749 4.868016 -3.906107 -44.771427 -18.435093 -10.690925 54.206001 -0.351603 3.057461 -3.306088 17.595055 7.833182 
3.534649 42.085911 -55.867722 6.328125 -1.943359 29.872717 24.726563 3.798828 -3.691406 -5.263672 -0.029297 -3.583984 -9.238281 0.615234 -10.556537 -4.003906 6.513672 -11.533204 11.328125 19.306641 0.898437 45.556652 -111.015625 -80.751305 -58.837894 -2.763672 -23.603518 -1.425781 12.978516 -0.779057 -20.009768 -12.822266 0.488282 84.921875 63.642582 15.156250 73.056641 3.369140 -39.042965 -15.849609 -17.617188 4.206029 -12.480226 15.574957 21.557255 52.289970 -0.587993 -3.240368 -34.178902 2.696092 -5.353268 -48.099194 -19.830603 -8.730350 58.606197 -0.528681 3.136632 1.483104 19.320957 6.687790 
3.432244 41.545341 -55.697506 6.152344 -1.767578 31.464844 25.615234 4.042969 -3.993453 -6.660156 1.220703 -3.808386 -5.722657 0.439453 -10.546874 -5.771484 6.318359 -11.795801 14.101563 21.074219 1.021879 37.431648 -108.769531 -71.933075 -60.449215 -2.626953 -19.140177 -2.167969 12.783204 -0.906041 -22.373047 -16.386719 0.657052 90.859375 61.826168 16.326967 77.910156 3.115234 -34.902874 -16.630859 -16.679688 4.091797 -13.719964 16.853138 21.357960 54.749084 -0.424475 -3.309365 -35.850315 0.594975 -7.009454 -50.954773 -21.444126 -6.874828 61.581505 -0.878918 3.269394 0.836423 21.219559 6.818826 
3.319936 41.070831 -55.415112 6.494141 -1.416016 33.388668 26.669922 4.042969 -3.994141 -8.222656 2.119140 -3.857422 -2.705078 0.605469 -11.083881 -7.167968 5.419922 -12.567437 16.611328 23.115234 1.201172 30.976574 -106.962883 -65.009338 -61.757813 -2.236328 -13.446884 -4.199219 11.826173 -1.306591 -24.482420 -19.492189 0.813805 97.822266 58.359375 18.613281 83.535156 3.125000 -35.800781 -20.263672 -12.988281 4.072266 -14.373061 17.230465 21.472624 56.298775 0.065085 -3.459332 -37.071468 -1.114193 -8.217772 -53.200378 -23.367882 -4.478391 60.877563 -0.712888 3.150992 -1.642594 19.817778 7.878365 
3.176640 40.785988 -54.959824 7.021485 -1.240234 34.804474 27.187500 4.414063 -3.193359 -9.091798 3.007813 -3.359375 -1.582031 0.214844 -12.304688 -7.685547 4.716797 -13.642580 18.251955 24.306643 1.187387 27.958998 -104.648438 -58.876633 -63.056641 -2.177734 -11.337892 -3.056641 11.347656 -1.025391 -23.779297 -21.591797 0.970391 101.044922 53.359379 18.035179 87.988281 3.486328 -40.566410 -23.466797 -8.554688 3.201674 -14.734984 18.306211 21.552841 56.844242 -0.073296 -3.063294 -37.296837 -3.246613 -9.760136 -53.479813 -25.074903 -3.097252 55.286190 -0.195229 3.017891 -0.271776 18.237413 6.973604 
3.016917 40.705952 -54.308937 7.373047 -1.054688 36.210758 27.705078 5.048828 -1.982422 -9.267578 3.183594 -2.489692 -2.197266 -0.703125 -13.857422 -7.148438 4.189453 -15.205080 18.798828 24.648438 1.363115 27.070335 -102.382813 -52.490009 -61.533203 -2.177734 -10.077752 -1.005859 10.537108 -0.593917 -20.947266 -21.455078 0.960604 100.478516 48.701172 18.532728 88.378906 3.486328 -46.201168 -24.619143 -2.861328 0.927734 -14.403066 19.545513 22.761469 56.500225 -0.081176 -3.379466 -36.630306 -5.506723 -11.714829 -52.181438 -26.002739 -2.124454 50.335636 -0.322089 3.080601 2.808956 17.407515 6.159657 
2.773895 40.891537 -53.557617 8.085938 -1.240234 37.958775 27.519531 6.191406 -0.644531 -9.091797 3.710938 -1.601562 -4.755859 -2.851563 -15.205564 -5.039062 4.218750 -16.512953 18.486328 24.423830 1.343618 23.964867 -101.025391 -43.036930 -56.289063 -2.011719 -8.388671 -0.273438 11.601571 -0.466785 -17.519531 -19.609375 0.921246 99.589844 47.246094 19.833984 81.347656 3.505859 -54.208988 -23.085939 2.431641 -1.093750 -14.237171 20.814257 23.965277 55.419388 -0.092832 -3.535914 -34.011158 -8.390656 -13.036156 -50.373302 -26.509676 -1.710460 47.900352 0.165906 2.845703 3.071145 18.042149 6.299180 
2.446293 41.269005 -52.863503 8.964845 -1.591797 40.243866 27.197266 7.666015 0.039063 -8.906251 4.062500 -1.250000 -7.509766 -5.507813 -16.386719 -2.226563 4.951172 -17.607422 17.861328 24.628908 1.206868 11.992200 -102.011719 -25.888458 -47.314457 -2.080078 -7.929688 -2.832031 14.687501 -1.257288 -13.593750 -17.128906 0.764595 99.189453 49.882816 18.610987 66.669922 3.671875 -59.638672 -15.517577 1.181641 -0.507610 -16.172047 21.728769 22.934580 55.097412 -0.432939 -3.147746 -28.016218 -11.648835 -13.655132 -50.435825 -27.429655 -2.922429 48.944397 -0.019657 2.814092 3.377079 17.165499 5.925984 
2.088984 41.727318 -52.248375 10.019530 -1.767578 42.529293 27.050779 8.652345 0.429687 -9.072266 4.765625 -1.073407 -10.449219 -7.812500 -17.218124 0.771484 5.332019 -18.524523 17.255859 25.439455 1.138383 -1.464838 -106.884766 -9.638251 -37.666016 -2.177734 -9.658202 -10.175780 22.705078 -4.634902 -9.667969 -15.205078 0.742188 96.953125 55.986328 14.324500 46.533199 3.623047 -58.525391 -3.037109 -4.589844 0.038283 -18.269604 22.747347 23.452225 55.419388 -0.092789 -3.535892 -20.787483 -14.450147 -12.962451 -50.228912 -28.463291 -4.081570 49.295250 -0.322334 2.678466 3.958220 15.705924 5.886721 
1.746122 42.094063 -51.683456 11.064453 -1.943359 45.000004 27.050779 8.964844 0.683594 -9.062499 6.171875 -1.073169 -13.232422 -10.117188 -17.872810 3.066406 5.351563 -19.472654 16.865234 25.761719 1.245755 -9.667964 -114.248047 0.108284 -29.218750 -2.236328 -12.714844 -15.839842 30.556641 -9.194253 -6.943359 -15.595704 0.693359 91.025391 61.337891 7.918726 31.669920 3.623047 -54.726566 9.345703 -11.328125 -2.287073 -20.369141 23.460285 24.278379 55.786652 0.083168 -3.290778 -17.605721 -14.608991 -11.883433 -49.546856 -29.880066 -5.726608 49.471691 -0.000063 2.836669 2.170483 14.531382 6.101065 
1.438557 42.289318 -51.176556 12.128907 -2.294922 47.099216 27.070313 9.345703 0.615234 -9.570313 7.587890 -1.269531 -15.341797 -12.050781 -18.009851 4.472656 5.527343 -19.755859 15.742188 25.419922 1.304402 -13.945315 -118.925781 6.884765 -26.679689 -2.373047 -14.785157 -9.707031 39.384766 -7.246093 -6.621094 -18.076172 0.820313 88.134766 60.703121 4.920625 27.568359 3.515625 -50.205677 13.408203 -5.117188 -1.602433 -21.629623 23.169806 25.350950 55.420467 -0.110540 -3.515844 -16.088720 -11.770344 -10.634089 -48.492790 -30.925013 -7.989999 49.472530 -0.339548 2.891524 -0.770596 14.108013 6.943285 
